<?xml version="1.0" encoding="UTF-8"?>
<svg width="24px" height="26px" viewBox="0 0 24 26" version="1.1" xmlns="http://www.w3.org/2000/svg" xmlns:xlink="http://www.w3.org/1999/xlink">
    <g id="Page-1" stroke="none" stroke-width="1" fill="none" fill-rule="evenodd">
        <g id="home" transform="translate(-1052.000000, -2198.000000)">
            <g id="Group-3" transform="translate(1052.000000, 2198.000000)">
                <rect id="Rectangle" stroke="#485F60" x="0.5" y="2.5" width="23" height="23" rx="4"></rect>
                <g id="Group-10" transform="translate(5.000000, 11.000000)" fill="#485F60">
                    <rect id="Rectangle" x="0" y="0" width="2" height="2" rx="1"></rect>
                    <rect id="Rectangle-Copy-19" x="0" y="4" width="2" height="2" rx="1"></rect>
                    <rect id="Rectangle-Copy-5" x="4" y="0" width="2" height="2" rx="1"></rect>
                    <rect id="Rectangle-Copy-20" x="4" y="4" width="2" height="2" rx="1"></rect>
                    <rect id="Rectangle-Copy-17" x="8" y="0" width="2" height="2" rx="1"></rect>
                    <rect id="Rectangle-Copy-21" x="8" y="4" width="2" height="2" rx="1"></rect>
                    <rect id="Rectangle-Copy-18" x="12" y="0" width="2" height="2" rx="1"></rect>
                    <rect id="Rectangle-Copy-22" x="12" y="4" width="2" height="2" rx="1"></rect>
                    <rect id="Rectangle-Copy-26" x="0" y="8" width="2" height="2" rx="1"></rect>
                    <rect id="Rectangle-Copy-25" x="4" y="8" width="2" height="2" rx="1"></rect>
                    <rect id="Rectangle-Copy-24" x="8" y="8" width="2" height="2" rx="1"></rect>
                    <rect id="Rectangle-Copy-23" x="12" y="8" width="2" height="2" rx="1"></rect>
                </g>
                <rect id="Rectangle-Copy-27" fill="#485F60" x="5" y="0" width="2" height="5" rx="1"></rect>
                <rect id="Rectangle-Copy-28" fill="#485F60" x="11" y="0" width="2" height="5" rx="1"></rect>
                <rect id="Rectangle-Copy-29" fill="#485F60" x="17" y="0" width="2" height="5" rx="1"></rect>
            </g>
        </g>
    </g>
</svg>