<?xml version="1.0" encoding="UTF-8"?>
<svg width="36px" height="40px" viewBox="0 0 36 40" version="1.1" xmlns="http://www.w3.org/2000/svg" xmlns:xlink="http://www.w3.org/1999/xlink">
    <g id="Page-1" stroke="none" stroke-width="1" fill="none" fill-rule="evenodd">
        <g id="home" transform="translate(-526.000000, -1406.000000)" stroke="#324B4A" stroke-width="2.4">
            <path d="M551.263118,1407.2 C553.408038,1407.2 555.787561,1408.24893 557.538926,1410.05681 C559.058112,1411.62502 560.103617,1413.77942 560.103617,1416.36449 C560.103617,1418.80771 559.40274,1419.96109 558.715321,1421.10895 C558.103602,1422.13041 557.508969,1423.15181 557.20963,1424.72276 C556.92243,1426.2307 556.873784,1427.92168 556.828397,1429.73196 C556.77173,1431.99211 556.718542,1434.45278 556.090809,1436.96413 C555.508222,1439.29409 554.71572,1441.54334 553.599165,1443.0893 C552.883321,1444.08044 552.035842,1444.8 550.939126,1444.8 C550.164287,1444.8 549.626724,1444.55855 549.280115,1444.18042 C548.663714,1443.50796 548.582046,1442.54988 548.576783,1442.15651 C548.771673,1439.64438 548.661321,1435.45834 547.784451,1432.44641 C547.420177,1431.19518 546.916526,1430.13756 546.28934,1429.40901 C545.56699,1428.56992 544.683824,1428.11967 543.651809,1428.11967 C542.619752,1428.11967 541.736575,1428.56991 541.014222,1429.40897 C540.387012,1430.13751 539.883353,1431.19512 539.519082,1432.44633 C538.642156,1435.45845 538.531928,1439.64487 538.726854,1442.15698 C538.721561,1442.54999 538.639864,1443.50799 538.023468,1444.18039 C537.676815,1444.55854 537.139182,1444.8 536.364241,1444.8 C535.267574,1444.8 534.420095,1444.08038 533.704245,1443.08918 C532.587746,1441.54324 531.795262,1439.29407 531.212816,1436.96416 C530.584889,1434.45259 530.531673,1431.9918 530.474979,1429.73155 C530.429576,1427.92143 530.380915,1426.23059 530.093718,1424.72266 C529.794405,1423.15185 529.199833,1422.13046 528.588184,1421.10903 C527.900816,1419.96115 527.2,1418.80775 527.2,1416.36449 C527.2,1413.7794 528.245469,1411.62498 529.764623,1410.05676 C531.515917,1408.24891 533.895352,1407.2 536.040249,1407.2 C538.188652,1407.2 539.078127,1407.55958 539.912696,1407.90382 C540.85521,1408.29257 541.744536,1408.65746 543.651809,1408.65746 C545.558949,1408.65746 546.448273,1408.29258 547.390786,1407.90382 C548.225355,1407.55959 549.114832,1407.2 551.263118,1407.2 Z" id="Stroke-1"></path>
        </g>
    </g>
</svg>