<?xml version="1.0" encoding="UTF-8"?>
<svg width="32px" height="32px" viewBox="0 0 32 32" version="1.1" xmlns="http://www.w3.org/2000/svg" xmlns:xlink="http://www.w3.org/1999/xlink">
    <!-- Generator: Sketch 64 (93537) - https://sketch.com -->
    <g id="Page-1" stroke="none" stroke-width="1" fill="none" fill-rule="evenodd">
        <g id="home_corona" transform="translate(-135.000000, -871.000000)" fill="#263A39">
            <path d="M152.092237,903 L136.766154,903 C135.790448,903 135,902.209061 135,901.233735 L135,872.766141 C135,871.790566 135.790573,871 136.766154,871 L165.23397,871 C166.209303,871 167,871.790566 167,872.766141 L167,901.233735 C167,902.209185 166.209179,903 165.23397,903 L157.079537,903 L157.079537,890.607836 L161.239014,890.607836 L161.861837,885.77839 L157.079537,885.77839 L157.079537,882.695094 C157.079537,881.296858 157.467808,880.344006 159.47286,880.344006 L162.030208,880.342889 L162.030208,876.023394 C161.587924,875.964539 160.069856,875.833047 158.303701,875.833047 C154.616556,875.833047 152.092237,878.083684 152.092237,882.216806 L152.092237,885.77839 L147.922081,885.77839 L147.922081,890.607836 L152.092237,890.607836 L152.092237,903 L152.092237,903 Z" id="Facebook"></path>
        </g>
    </g>
</svg>