<?xml version="1.0" encoding="UTF-8"?>
<svg width="32px" height="32px" viewBox="0 0 32 32" version="1.1" xmlns="http://www.w3.org/2000/svg" xmlns:xlink="http://www.w3.org/1999/xlink">
    <!-- Generator: Sketch 64 (93537) - https://sketch.com -->
    <g id="Page-1" stroke="none" stroke-width="1" fill="none" fill-rule="evenodd">
        <g id="home_corona" transform="translate(-183.000000, -871.000000)" fill="#263A39">
            <path d="M200.348343,871.000783 C203.485054,871.004986 204.085246,871.027317 205.59678,871.096284 C207.299793,871.17396 208.46289,871.444458 209.480608,871.840011 C210.532749,872.248838 211.425031,872.795932 212.314581,873.685419 C213.204068,874.574969 213.751162,875.467251 214.160052,876.519392 C214.555542,877.53711 214.82604,878.700207 214.903716,880.40322 C214.981581,882.109791 215,882.654661 215,887.000032 C215,891.345339 214.981581,891.890209 214.903716,893.59678 C214.82604,895.299793 214.555542,896.46289 214.160052,897.480608 C213.751162,898.532749 213.204068,899.425031 212.314581,900.314581 C211.425031,901.204068 210.532749,901.751162 209.480608,902.160052 C208.46289,902.555542 207.299793,902.82604 205.59678,902.903716 C203.890209,902.981581 203.345339,903 199.000032,903 C194.654661,903 194.109791,902.981581 192.40322,902.903716 C190.700207,902.82604 189.53711,902.555542 188.519392,902.160052 C187.467251,901.751162 186.574969,901.204068 185.685419,900.314581 C184.795932,899.425031 184.248838,898.532749 183.840011,897.480608 C183.444458,896.46289 183.17396,895.299793 183.096284,893.59678 C183.027317,892.085246 183.004986,891.485054 183.000783,888.348343 L183.000783,885.651701 C183.004986,882.514946 183.027317,881.914754 183.096284,880.40322 C183.17396,878.700207 183.444458,877.53711 183.840011,876.519392 C184.248838,875.467251 184.795932,874.574969 185.685419,873.685419 C186.574969,872.795932 187.467251,872.248838 188.519392,871.840011 C189.53711,871.444458 190.700207,871.17396 192.40322,871.096284 C193.914754,871.027317 194.514946,871.004986 197.651701,871.000783 Z M199.357108,873.882919 L198.642951,873.882919 C194.697945,873.88386 194.173559,873.9014 192.534627,873.976177 C190.974643,874.047311 190.127455,874.307964 189.563658,874.527081 C188.816819,874.817331 188.283826,875.164044 187.723966,875.723966 C187.164044,876.283826 186.817331,876.816819 186.527081,877.563658 C186.307964,878.127455 186.047311,878.974643 185.976177,880.534627 C185.8992,882.221762 185.882878,882.727827 185.882878,887.000032 L185.882919,887.357108 C185.88386,891.302055 185.9014,891.826441 185.976177,893.465373 C186.047311,895.025357 186.307964,895.872545 186.527081,896.436342 C186.817331,897.183181 187.164107,897.716174 187.723966,898.276034 C188.283826,898.835956 188.816819,899.182669 189.563658,899.472919 C190.127455,899.692036 190.974643,899.952689 192.534627,900.023823 C194.221572,900.1008 194.727509,900.117122 199.000032,900.117122 L199.357134,900.117081 C203.302369,900.11614 203.826688,900.0986 205.465373,900.023823 C207.025357,899.952689 207.872545,899.692036 208.436342,899.472919 C209.183181,899.182669 209.716174,898.835956 210.276034,898.276034 C210.835956,897.716174 211.182669,897.183181 211.472919,896.436342 C211.692036,895.872545 211.952689,895.025357 212.023823,893.465373 C212.1008,891.778238 212.117122,891.272173 212.117122,887.000032 L212.117081,886.642951 C212.11614,882.697945 212.0986,882.173559 212.023823,880.534627 C211.952689,878.974643 211.692036,878.127455 211.472919,877.563658 C211.182669,876.816819 210.835956,876.283826 210.276034,875.723966 C209.716174,875.164044 209.183181,874.817331 208.436342,874.527081 C207.872545,874.307964 207.025357,874.047311 205.465373,873.976177 C203.778238,873.8992 203.272173,873.882878 199.000032,873.882878 Z M199.000032,878.783789 C203.537717,878.783789 207.216211,882.462283 207.216211,887.000032 C207.216211,891.537717 203.537717,895.216211 199.000032,895.216211 C194.462283,895.216211 190.783789,891.537717 190.783789,887.000032 C190.783789,882.462283 194.462283,878.783789 199.000032,878.783789 Z M199.000032,881.666667 C196.054468,881.666667 193.666667,884.054468 193.666667,887.000032 C193.666667,889.945532 196.054468,892.333333 199.000032,892.333333 C201.945532,892.333333 204.333333,889.945532 204.333333,887.000032 C204.333333,884.054468 201.945532,881.666667 199.000032,881.666667 Z M207.540821,876.539144 C208.601219,876.539144 209.460856,877.398781 209.460856,878.459179 C209.460856,879.519577 208.601219,880.379149 207.540821,880.379149 C206.480487,880.379149 205.620851,879.519577 205.620851,878.459179 C205.620851,877.398781 206.480487,876.539144 207.540821,876.539144 Z" id="Instagram"></path>
        </g>
    </g>
</svg>