<?xml version="1.0" encoding="UTF-8"?>
<svg width="175px" height="48px" viewBox="0 0 175 48" version="1.1" xmlns="http://www.w3.org/2000/svg" xmlns:xlink="http://www.w3.org/1999/xlink">
    <!-- Generator: Sketch 64 (93537) - https://sketch.com -->
    <defs>
        <polygon id="path-1" points="2.58945442e-05 0.251 38.3237 0.251 38.3237 32.6218 2.58945442e-05 32.6218"></polygon>
    </defs>
    <g id="Page-1" stroke="none" stroke-width="1" fill="none" fill-rule="evenodd">
        <g id="home_corona" transform="translate(-135.000000, -34.000000)">
            <g id="Group-4" transform="translate(135.000000, 34.000000)">
                <path d="M45.2729,32.2327 C45.2729,30.7847 45.2519,29.5677 45.2099,28.5817 C45.1669,27.5957 45.1359,26.7247 45.1159,25.9697 C45.7019,26.0747 46.1739,26.1267 46.5309,26.1267 C46.8879,26.1267 47.3599,26.0747 47.9479,25.9697 C50.2339,28.5087 52.4959,31.0047 54.7299,33.4597 C56.9639,35.9147 59.2559,38.4117 61.6069,40.9507 L61.6069,38.2117 L61.6069,35.1597 C61.6069,34.1317 61.6009,33.1187 61.5909,32.1227 C61.5799,31.1257 61.5699,30.2087 61.5589,29.3687 C61.5479,28.5297 61.5279,27.8057 61.4969,27.1967 C61.4649,26.5887 61.4279,26.1797 61.3859,25.9697 C61.9729,26.0747 62.4459,26.1267 62.8019,26.1267 C63.1599,26.1267 63.6309,26.0747 64.2179,25.9697 C64.1139,27.8787 64.0299,29.6047 63.9669,31.1467 C63.9039,32.6887 63.8519,34.1417 63.8099,35.5057 C63.7669,36.8697 63.7409,38.2177 63.7309,39.5497 C63.7199,40.8817 63.7149,42.3037 63.7149,43.8147 L63.7149,47.5907 C63.2949,47.5487 62.8649,47.5277 62.4249,47.5277 C61.9629,47.5277 61.5539,47.5487 61.1969,47.5907 C56.8749,42.5547 52.2909,37.4887 47.4439,32.3897 C47.4229,32.9987 47.4069,33.6077 47.3969,34.2147 C47.3859,34.8237 47.3809,35.4427 47.3809,36.0717 L47.3809,39.7227 C47.3809,40.9817 47.3859,42.0517 47.3969,42.9327 C47.4069,43.8147 47.4229,44.5597 47.4439,45.1677 C47.4639,45.7757 47.4859,46.2747 47.5059,46.6627 C47.5279,47.0507 47.5479,47.3607 47.5699,47.5907 C47.3189,47.5487 47.0659,47.5277 46.8149,47.5277 L46.0899,47.5277 C45.6079,47.5277 45.1259,47.5487 44.6429,47.5907 C44.6849,47.4237 44.7379,46.8257 44.7999,45.7967 C44.8629,44.7697 44.9309,43.5157 45.0039,42.0367 C45.0789,40.5567 45.1409,38.9517 45.1939,37.2207 C45.2459,35.4897 45.2729,33.8267 45.2729,32.2327" id="Fill-1" fill="#3F6462"></path>
                <path d="M69.0649,30.0452 C69.0229,28.6922 68.9609,27.3342 68.8769,25.9692 C69.8209,25.9912 70.7539,26.0222 71.6769,26.0642 C72.6009,26.1062 73.5349,26.1272 74.4779,26.1272 C76.0309,26.1272 77.4109,26.1112 78.6179,26.0792 C79.8239,26.0482 80.6359,26.0122 81.0559,25.9692 C80.9719,26.3052 80.9299,26.7462 80.9299,27.2912 C80.9299,27.6272 80.9409,27.8892 80.9619,28.0782 C80.9829,28.2672 81.0139,28.4772 81.0559,28.7082 C80.4479,28.6662 79.7819,28.6242 79.0579,28.5812 C78.3339,28.5402 77.6309,28.4982 76.9499,28.4562 C76.2669,28.4142 75.6529,28.3832 75.1079,28.3612 C74.5619,28.3412 74.1739,28.3302 73.9429,28.3302 C73.8599,29.4842 73.8119,30.6272 73.8019,31.7602 C73.7919,32.8932 73.7859,34.0372 73.7859,35.1912 C75.1499,35.1702 76.3819,35.1382 77.4839,35.0962 C78.5859,35.0552 79.7349,35.0022 80.9299,34.9392 C80.8679,35.2962 80.8259,35.5682 80.8039,35.7572 C80.7839,35.9462 80.7729,36.1462 80.7729,36.3552 C80.7729,36.5242 80.7889,36.6962 80.8209,36.8752 C80.8519,37.0532 80.8879,37.3102 80.9299,37.6462 C78.5389,37.4572 76.1569,37.3622 73.7859,37.3622 C73.7859,38.0342 73.7809,38.7052 73.7709,39.3772 C73.7599,40.0482 73.7549,40.7192 73.7549,41.3912 C73.7549,42.7552 73.7859,44.0662 73.8489,45.3252 C75.0449,45.3252 76.2409,45.2932 77.4369,45.2312 C78.6329,45.1682 79.8389,45.0632 81.0559,44.9162 C81.0139,45.1472 80.9829,45.3572 80.9619,45.5462 C80.9409,45.7342 80.9299,45.9972 80.9299,46.3322 C80.9299,46.6682 80.9409,46.9302 80.9619,47.1182 C80.9829,47.3072 81.0139,47.4652 81.0559,47.5912 C80.4899,47.5702 79.7929,47.5542 78.9629,47.5442 C78.1339,47.5332 76.9969,47.5282 75.5479,47.5282 L72.4329,47.5282 L70.5609,47.5282 C70.0879,47.5282 69.7319,47.5332 69.4909,47.5442 C69.2489,47.5542 69.0439,47.5702 68.8769,47.5912 C68.9609,46.2902 69.0229,44.9632 69.0649,43.6092 C69.1069,42.2562 69.1279,40.7092 69.1279,38.9672 L69.1279,34.6872 C69.1279,32.9452 69.1069,31.3992 69.0649,30.0452" id="Fill-3" fill="#3F6462"></path>
                <path d="M94.6831,47.9998 C93.3401,47.9998 92.0871,47.8588 90.9231,47.5758 C89.7581,47.2918 88.7461,46.8198 87.8861,46.1588 C87.0251,45.4978 86.3481,44.6478 85.8561,43.6098 C85.3631,42.5708 85.1161,41.3078 85.1161,39.8178 C85.1161,38.9788 85.1201,38.2278 85.1321,37.5668 C85.1421,36.9058 85.1481,36.2928 85.1481,35.7258 C85.1481,35.1598 85.1531,34.6148 85.1631,34.0898 C85.1731,33.5648 85.1791,33.0198 85.1791,32.4528 C85.1791,30.7538 85.1681,29.3798 85.1481,28.3298 C85.1261,27.2808 85.0951,26.4948 85.0531,25.9698 C85.4731,26.0118 85.9031,26.0478 86.3431,26.0798 C86.7841,26.1108 87.2141,26.1268 87.6341,26.1268 C88.0531,26.1268 88.4841,26.1108 88.9241,26.0798 C89.3651,26.0478 89.7951,26.0118 90.2141,25.9698 C90.0041,28.0048 89.8781,29.8978 89.8371,31.6498 C89.7951,33.4028 89.7741,35.1808 89.7741,36.9848 C89.7741,38.8948 89.9111,40.4368 90.1831,41.6108 C90.4551,42.7868 90.8601,43.6938 91.3951,44.3338 C91.9301,44.9738 92.5851,45.3988 93.3621,45.6078 C94.1381,45.8178 95.0401,45.9228 96.0691,45.9228 C97.3281,45.9228 98.3131,45.6078 99.0271,44.9788 C99.7411,44.3498 100.2801,43.5108 100.6481,42.4608 C101.0141,41.4118 101.2411,40.2108 101.3251,38.8568 C101.4091,37.5038 101.4501,36.0938 101.4501,34.6248 C101.4501,33.1768 101.4291,31.7348 101.3871,30.2968 C101.3451,28.8598 101.2821,27.4168 101.1991,25.9698 C101.4921,26.0118 101.7751,26.0478 102.0481,26.0798 C102.3211,26.1108 102.5731,26.1268 102.8031,26.1268 C103.0771,26.1268 103.3381,26.1108 103.5901,26.0798 C103.8421,26.0478 104.1051,26.0118 104.3771,25.9698 C104.3341,26.4318 104.2921,27.0498 104.2511,27.8268 C104.2091,28.6028 104.1671,29.4998 104.1251,30.5178 C104.0831,31.5358 104.0461,32.6578 104.0151,33.8848 C103.9841,35.1128 103.9681,36.4078 103.9681,37.7718 C103.9681,41.4218 103.1811,44.0408 101.6081,45.6238 C100.0351,47.2088 97.7261,47.9998 94.6831,47.9998" id="Fill-5" fill="#3F6462"></path>
                <path d="M119.1372,31.8865 C119.1372,30.9635 119.0432,30.2285 118.8542,29.6835 C118.6652,29.1375 118.3772,28.7235 117.9892,28.4405 C117.6012,28.1575 117.0962,27.9735 116.4782,27.8885 C115.8592,27.8055 115.1192,27.7635 114.2592,27.7635 C114.1972,30.6165 114.1652,33.4705 114.1652,36.3235 C114.2902,36.3455 114.4112,36.3605 114.5272,36.3705 C114.6422,36.3825 114.7522,36.3875 114.8582,36.3875 C116.2412,36.3875 117.3012,36.0145 118.0362,35.2695 C118.7702,34.5255 119.1372,33.3975 119.1372,31.8865 L119.1372,31.8865 Z M114.1652,37.6775 L114.1652,38.9675 C114.1652,40.7095 114.1862,42.2565 114.2282,43.6095 C114.2702,44.9635 114.3322,46.2905 114.4162,47.5915 C114.0602,47.5485 113.6722,47.5285 113.2522,47.5285 L111.8362,47.5285 L110.4192,47.5285 C110.0002,47.5285 109.6122,47.5485 109.2552,47.5915 C109.3392,46.2905 109.4022,44.9635 109.4452,43.6095 C109.4862,42.2565 109.5072,40.7095 109.5072,38.9675 L109.5072,34.6875 C109.5072,32.9455 109.4862,31.3985 109.4452,30.0455 C109.4022,28.6925 109.3392,27.3335 109.2552,25.9695 C109.6122,26.0115 110.0002,26.0485 110.4192,26.0795 C110.8392,26.1115 111.3122,26.1265 111.8362,26.1265 C112.4032,26.1265 113.0472,26.1005 113.7722,26.0485 C114.4952,25.9965 115.3922,25.9695 116.4622,25.9695 C117.2592,25.9695 117.9422,25.9905 118.5082,26.0325 C119.0752,26.0745 119.5632,26.1375 119.9712,26.2205 C120.3812,26.3055 120.7382,26.4155 121.0412,26.5515 C121.3452,26.6885 121.6342,26.8505 121.9082,27.0395 C122.5362,27.5015 123.0342,28.0735 123.4022,28.7545 C123.7692,29.4365 123.9522,30.2495 123.9522,31.1945 C123.9522,32.7255 123.5332,33.9745 122.6942,34.9395 C121.8542,35.9045 120.6482,36.5865 119.0752,36.9855 C120.0822,38.7685 121.1612,40.5465 122.3162,42.3195 C123.4702,44.0925 124.6242,45.8495 125.7792,47.5915 C125.2952,47.5485 124.8242,47.5285 124.3622,47.5285 L122.9462,47.5285 L121.5142,47.5285 C121.0412,47.5285 120.5642,47.5485 120.0822,47.5915 L114.4492,37.6775 L114.1652,37.6775 Z" id="Fill-7" fill="#3F6462"></path>
                <path d="M145.8257,36.1355 C145.8257,34.7715 145.6577,33.5495 145.3227,32.4685 C144.9867,31.3885 144.5197,30.4695 143.9227,29.7155 C143.3237,28.9595 142.5997,28.3775 141.7507,27.9685 C140.9007,27.5585 139.9717,27.3545 138.9647,27.3545 C137.8947,27.3545 136.9347,27.6115 136.0857,28.1255 C135.2347,28.6395 134.5167,29.3375 133.9297,30.2185 C133.3427,31.0995 132.8947,32.1335 132.5917,33.3185 C132.2877,34.5035 132.1357,35.7685 132.1357,37.1105 C132.1357,38.7895 132.3137,40.2055 132.6707,41.3595 C133.0267,42.5135 133.5097,43.4425 134.1187,44.1445 C134.7267,44.8475 135.4297,45.3565 136.2267,45.6715 C137.0237,45.9855 137.8637,46.1435 138.7447,46.1435 C139.6887,46.1435 140.5917,45.9445 141.4517,45.5455 C142.3117,45.1465 143.0607,44.5385 143.7017,43.7195 C144.3417,42.9015 144.8557,41.8635 145.2437,40.6045 C145.6317,39.3455 145.8257,37.8555 145.8257,36.1355 M126.9737,36.8275 C126.9737,35.2755 127.2627,33.8165 127.8397,32.4525 C128.4167,31.0895 129.2287,29.8935 130.2787,28.8645 C131.3277,27.8375 132.5967,27.0295 134.0867,26.4415 C135.5757,25.8545 137.2337,25.5605 139.0587,25.5605 C140.7377,25.5605 142.3017,25.7915 143.7487,26.2525 C145.1957,26.7145 146.4557,27.4065 147.5257,28.3295 C148.5957,29.2535 149.4397,30.4225 150.0587,31.8395 C150.6777,33.2555 150.9877,34.9075 150.9877,36.7965 C150.9877,38.3695 150.6887,39.8385 150.0907,41.2025 C149.4927,42.5665 148.6637,43.7565 147.6037,44.7745 C146.5447,45.7925 145.2797,46.5845 143.8117,47.1505 C142.3427,47.7175 140.7267,47.9995 138.9647,47.9995 C137.3067,47.9995 135.7497,47.7955 134.2917,47.3865 C132.8327,46.9775 131.5627,46.3165 130.4837,45.4045 C129.4017,44.4905 128.5477,43.3265 127.9187,41.9095 C127.2887,40.4945 126.9737,38.8005 126.9737,36.8275" id="Fill-9" fill="#3F6462"></path>
                <path d="M155.1108,32.2327 C155.1108,30.7847 155.0898,29.5677 155.0478,28.5817 C155.0048,27.5957 154.9738,26.7247 154.9538,25.9697 C155.5398,26.0747 156.0118,26.1267 156.3688,26.1267 C156.7258,26.1267 157.1978,26.0747 157.7858,25.9697 C160.0718,28.5087 162.3338,31.0047 164.5678,33.4597 C166.8018,35.9147 169.0938,38.4117 171.4448,40.9507 L171.4448,38.2117 L171.4448,35.1597 C171.4448,34.1317 171.4388,33.1187 171.4288,32.1227 C171.4178,31.1257 171.4078,30.2087 171.3968,29.3687 C171.3858,28.5297 171.3658,27.8057 171.3348,27.1967 C171.3028,26.5887 171.2658,26.1797 171.2238,25.9697 C171.8108,26.0747 172.2838,26.1267 172.6398,26.1267 C172.9978,26.1267 173.4688,26.0747 174.0558,25.9697 C173.9518,27.8787 173.8678,29.6047 173.8048,31.1467 C173.7418,32.6887 173.6898,34.1417 173.6478,35.5057 C173.6048,36.8697 173.5788,38.2177 173.5688,39.5497 C173.5578,40.8817 173.5528,42.3037 173.5528,43.8147 L173.5528,47.5907 C173.1328,47.5487 172.7028,47.5277 172.2628,47.5277 C171.8008,47.5277 171.3918,47.5487 171.0358,47.5907 C166.7128,42.5547 162.1288,37.4887 157.2818,32.3897 C157.2608,32.9987 157.2448,33.6077 157.2348,34.2147 C157.2238,34.8237 157.2188,35.4427 157.2188,36.0717 L157.2188,39.7227 C157.2188,40.9817 157.2238,42.0517 157.2348,42.9327 C157.2448,43.8147 157.2608,44.5597 157.2818,45.1677 C157.3018,45.7757 157.3238,46.2747 157.3438,46.6627 C157.3658,47.0507 157.3858,47.3607 157.4078,47.5907 C157.1568,47.5487 156.9038,47.5277 156.6528,47.5277 L155.9288,47.5277 C155.4458,47.5277 154.9638,47.5487 154.4808,47.5907 C154.5228,47.4237 154.5758,46.8257 154.6378,45.7967 C154.7008,44.7697 154.7688,43.5157 154.8418,42.0367 C154.9168,40.5567 154.9788,38.9517 155.0318,37.2207 C155.0838,35.4897 155.1108,33.8267 155.1108,32.2327" id="Fill-11" fill="#3F6462"></path>
                <path d="M22.896,28.5837 C19.531,28.5837 16.383,27.6567 13.69,26.0467 C14.75,29.1437 17.682,31.3707 21.137,31.3707 C23.833,31.3707 26.211,30.0157 27.629,27.9487 C26.122,28.3597 24.536,28.5837 22.896,28.5837" id="Fill-13" fill="#A9A54D"></path>
                <path d="M21.9604,34.1873 C19.1574,34.5813 16.4264,34.1773 13.9944,33.1523 C15.2394,35.6073 17.9434,37.1193 20.8214,36.7153 C23.0664,36.3993 24.8894,34.9913 25.8294,33.1043 C24.6204,33.6233 23.3254,33.9953 21.9604,34.1873" id="Fill-15" fill="#A9A54D"></path>
                <path d="M21.5024,38.6497 C19.2584,39.2487 16.9944,39.1897 14.9124,38.5957 C16.1694,40.4717 18.5214,41.4357 20.8254,40.8217 C22.6224,40.3417 23.9674,39.0147 24.5464,37.3847 C23.6124,37.9277 22.5954,38.3587 21.5024,38.6497" id="Fill-17" fill="#A9A54D"></path>
                <path d="M22.0141,42.4768 C20.2661,43.1188 18.4541,43.2378 16.7491,42.9158 C17.8901,44.3218 19.8381,44.9188 21.6321,44.2598 C23.0331,43.7458 24.0091,42.5878 24.3521,41.2448 C23.6461,41.7458 22.8661,42.1648 22.0141,42.4768" id="Fill-19" fill="#A9A54D"></path>
                <path d="M22.645,45.4319 C21.412,46.2739 20.026,46.7219 18.635,46.8049 C19.798,47.6759 21.431,47.7579 22.698,46.8939 C23.686,46.2199 24.219,45.1269 24.222,44.0149 C23.772,44.5429 23.247,45.0219 22.645,45.4319" id="Fill-21" fill="#A9A54D"></path>
                <g id="Group-25">
                    <mask id="mask-2" fill="white">
                        <use xlink:href="#path-1"></use>
                    </mask>
                    <g id="Clip-24"></g>
                    <path d="M0.9097,32.6218 C0.9097,32.6218 4.6817,29.5668 4.6817,27.0668 C4.6817,25.4628 3.0457,24.3408 2.4697,23.9958 C2.3747,23.9388 2.3597,23.8078 2.4417,23.7328 C2.9587,23.2648 4.4727,21.7838 4.4727,20.5218 C4.4727,18.9998 2.7957,15.2768 2.7957,15.2768 C2.7957,15.2768 6.9107,5.0378 17.0037,5.0378 C27.0967,5.0378 32.9257,14.1808 32.9257,20.8768 C32.9257,26.9428 29.1537,32.2028 29.1537,32.2028 C29.1537,32.2028 38.3237,25.7648 38.3237,16.6918 C38.3237,7.6198 28.6637,0.2508 18.9837,0.2508 C6.0627,0.2508 1.0227,12.5278 0.0827,15.1908 C-0.0303,15.5098 -0.0273,15.8588 0.0907,16.1758 L1.6597,20.4348 C1.7157,20.5858 1.6967,20.7538 1.6087,20.8878 L0.1587,23.1258 C0.0177,23.3428 0.0497,23.6268 0.2347,23.8068 C0.9977,24.5478 2.8567,26.4948 2.8567,27.8488 C2.8567,29.5518 0.9097,32.6218 0.9097,32.6218" id="Fill-23" fill="#3F6462" mask="url(#mask-2)"></path>
                </g>
            </g>
        </g>
    </g>
</svg>