<?xml version="1.0" encoding="UTF-8"?>
<svg width="52px" height="44px" viewBox="0 0 52 44" version="1.1" xmlns="http://www.w3.org/2000/svg" xmlns:xlink="http://www.w3.org/1999/xlink">
    <g id="Page-1" stroke="none" stroke-width="1" fill="none" fill-rule="evenodd">
        <g id="home" transform="translate(-224.000000, -1404.000000)" fill="#324B4A" fill-rule="nonzero">
            <g id="Especialidade" transform="translate(0.000000, 660.000000)">
                <path d="M274.226663,764.689372 L274.313239,764.528759 C274.871244,763.49816 275.152458,762.387891 275.152458,761.227271 C275.152458,757.819982 272.687883,754.892619 269.157853,754.105488 L268.937937,754.05705 L268.899388,753.833976 C268.285772,750.273722 265.043276,747.689256 261.192851,747.689256 C260.569755,747.689256 259.946028,747.758727 259.338732,747.898307 L259.109337,747.95057 L258.982316,747.750442 C257.713376,745.745329 255.439015,744.506315 252.402532,744.166606 C249.247243,743.810325 246.167788,745.832009 244.898216,746.807159 C243.590095,746.3591 242.224468,746.132202 240.829139,746.132202 C234.97988,746.132202 230.029243,750.057022 229.057948,755.464962 L229.028246,755.629399 L228.883532,755.705244 C226.636344,756.883073 225.21637,759.102336 224.885232,761.951941 C224.555358,764.78625 226.272977,767.287223 227.202565,768.410239 C227.021829,769.034208 226.930198,769.678572 226.930198,770.333133 C226.93083,773.148959 228.607373,775.66969 231.303871,776.908704 L231.42078,776.962242 L231.4726,777.082064 C231.988897,778.266266 232.951345,779.208274 234.152667,779.746837 L232.875512,786.356188 C232.80347,786.731589 232.900789,787.11655 233.140296,787.41037 C233.380434,787.705464 233.738113,787.875 234.115383,787.875 L237.502594,787.875 C237.969599,787.875 238.398688,787.61496 238.618604,787.198131 L242.324314,780.173226 C243.614741,779.985207 244.874202,779.549258 246.002851,778.897246 C246.058462,778.864103 246.111545,778.829049 246.161469,778.786983 L247.896151,777.39373 L248.172941,777.599595 C249.590388,778.665249 251.206265,779.206362 252.976336,779.206362 C255.16412,779.206362 257.212877,778.339562 258.646755,776.843694 C259.717897,777.315335 261.556218,777.972446 263.488697,777.972446 C263.81478,777.972446 264.135175,777.953963 264.44293,777.917634 C267.622233,777.53586 269.665934,775.036161 270.434376,773.909321 C273.283805,773.312121 275.15625,771.067364 275.15625,768.154661 C275.15625,766.99914 274.873772,765.888871 274.313239,764.851897 L274.226663,764.689372 Z M269.524379,771.477182 C269.125624,771.525621 268.772368,771.765903 268.573306,772.118359 C268.556876,772.14704 266.88918,775.055919 264.146549,775.384793 C263.936745,775.40965 263.715565,775.422397 263.489961,775.422397 C262.178049,775.422397 260.874352,775.006205 259.99848,774.649288 C260.699936,772.697076 260.686033,770.806687 260.354263,769.154668 C260.388388,769.085833 260.430096,769.021461 260.451582,768.944341 C261.629523,764.697021 265.637302,764.219006 265.819933,764.199885 C266.51191,764.131688 267.018728,763.511544 266.954902,762.813005 C266.88918,762.110642 266.272404,761.599485 265.577899,761.662583 C265.378205,761.681066 261.419718,762.114466 259.143461,765.707225 C258.503936,764.438893 257.878313,763.637103 257.808167,763.54851 C257.372127,763.001024 256.579039,762.914982 256.033673,763.354118 C255.490202,763.792617 255.402362,764.593769 255.835875,765.144442 C255.990069,765.34011 259.503037,769.876788 257.34053,774.454258 C257.32094,774.479115 257.298822,774.500147 257.279863,774.526279 C256.339533,775.860896 254.73124,776.657587 252.976336,776.657587 C251.763006,776.657587 250.655211,776.287922 249.683284,775.556878 L248.946439,775.004293 C248.502815,773.53392 246.904633,769.136184 243.214721,767.340124 C240.904972,766.215833 238.274828,766.325458 235.395698,767.663899 C234.76186,767.958993 234.485069,768.715531 234.777658,769.355434 C235.069616,769.994061 235.819731,770.273859 236.454833,769.979402 C238.611021,768.976209 240.511904,768.858936 242.107558,769.632045 C244.604363,770.841741 245.906164,773.909321 246.395287,775.340816 L244.665029,776.732157 C243.676039,777.286655 242.559397,777.625089 241.429484,777.708582 C240.996603,777.741725 240.610487,777.994754 240.406369,778.381627 L236.743631,785.326225 L235.649739,785.326225 L236.848534,779.122231 C236.981873,778.431341 236.53509,777.76212 235.850697,777.626364 C234.905943,777.440894 234.134341,776.85198 233.786141,776.055289 L233.540315,775.491231 C233.415822,775.20506 233.191483,774.975613 232.909637,774.844955 L232.354159,774.588739 C230.567658,773.767191 229.457967,772.136205 229.457335,770.331221 C229.457335,769.78501 229.559078,769.248358 229.753716,768.751223 L229.814383,768.602082 C230.008389,768.124068 229.894639,767.572757 229.530009,767.209466 C229.505363,767.185247 227.102086,764.759481 227.395307,762.247673 C227.528647,761.097251 228.051263,759.012469 230.049465,757.965298 L230.744602,757.600732 C230.750921,757.596908 230.755345,757.591809 230.761032,757.587985 C230.767984,757.584161 230.775567,757.582886 230.782518,757.579062 C230.796421,757.571414 232.210708,756.800854 233.655961,757.283968 C234.691714,757.628776 235.551156,758.562498 236.210272,760.059003 C236.419445,760.534468 236.882027,760.816815 237.366094,760.816815 C237.537351,760.816815 237.711767,760.780486 237.879232,760.705916 C238.516862,760.419745 238.804395,759.666393 238.520653,759.022667 C237.559469,756.842919 236.19005,755.442655 234.44968,754.862664 C233.536523,754.558646 232.654964,754.535064 231.894737,754.628755 C233.140928,751.115665 236.692444,748.679702 240.829139,748.679702 C242.134732,748.679702 243.4062,748.928907 244.610682,749.417757 C246.345996,750.316425 247.402604,751.486605 247.747012,752.900891 C248.414343,755.638322 246.360531,758.583531 246.339676,758.613486 C245.933338,759.183917 246.062254,759.979334 246.62721,760.389789 C246.850918,760.552951 247.109382,760.631346 247.365951,760.631346 C247.758387,760.631346 248.144504,760.448425 248.391593,760.102343 C248.498392,759.953202 250.866912,756.582242 250.320282,752.923199 C250.940849,752.574566 251.518444,752.446458 252.033478,752.564369 C253.136217,752.81931 253.825034,754.038566 253.843993,754.071709 C254.072124,754.49746 254.507532,754.739017 254.955579,754.739017 C255.155905,754.739017 255.36255,754.689304 255.550869,754.587327 C256.166381,754.255266 256.398304,753.482157 256.067798,752.862013 C255.945833,752.633203 254.81592,750.607695 252.625608,750.08634 C251.58859,749.839685 250.530719,749.975441 249.466528,750.487235 C248.966029,749.618523 248.27658,748.83904 247.383645,748.162172 C248.583704,747.391612 250.38158,746.507603 252.123213,746.699446 C253.690431,746.874718 255.78532,747.436226 256.850143,749.12075 L257.454911,750.075505 C257.741181,750.528663 258.28086,750.750462 258.797789,750.633189 L259.894841,750.382709 C260.319506,750.285832 260.754915,750.236756 261.190955,750.236756 C263.810988,750.236756 266.00446,751.932115 266.407639,754.268651 L266.591535,755.33303 C266.680007,755.842275 267.063596,756.248269 267.563462,756.359806 L268.609959,756.59244 C270.972159,757.118893 272.622793,759.023304 272.622793,761.224721 C272.622793,761.954491 272.445217,762.653667 272.091961,763.306316 L271.675511,764.076876 C271.47013,764.458013 271.47013,764.918182 271.676143,765.298044 L272.093225,766.068604 C272.449009,766.725715 272.627852,767.426166 272.627852,768.151474 C272.629744,769.579145 271.813907,771.199933 269.524379,771.477182 Z" id="Shape"></path>
            </g>
        </g>
    </g>
</svg>