<?xml version="1.0" encoding="UTF-8"?>
<svg width="52px" height="44px" viewBox="0 0 52 44" version="1.1" xmlns="http://www.w3.org/2000/svg" xmlns:xlink="http://www.w3.org/1999/xlink">
    <g id="Page-1" stroke="none" stroke-width="1" fill="none" fill-rule="evenodd">
        <g id="home" transform="translate(-800.000000, -1404.000000)" fill="#324B4A" fill-rule="nonzero">
            <g id="Especialidade" transform="translate(0.000000, 660.000000)">
                <path d="M841.483639,770.210791 C839.300222,770.210791 837.281148,771.008378 835.731626,772.345509 L832.585628,768.334115 C834.299493,766.645107 835.379462,764.322721 835.379462,761.718834 C835.379462,760.381702 835.097731,759.091488 834.557746,757.942024 L841.741892,753.719504 C842.727951,754.634383 844.066175,755.197386 845.521786,755.197386 C848.573874,755.197386 851.0625,752.710791 851.0625,749.661193 C851.0625,746.611595 848.573874,744.125 845.521786,744.125 C842.469698,744.125 839.981072,746.611595 839.981072,749.661193 C839.981072,750.505697 840.168893,751.326743 840.521057,752.030496 L833.501254,756.159182 C831.810867,753.907172 829.13442,752.452748 826.10581,752.452748 C824.180646,752.452748 822.372871,753.039209 820.893782,754.047922 L818.5695,751.279826 C819.34426,750.552614 819.813812,749.543901 819.813812,748.417895 C819.813812,746.259718 818.052992,744.500335 815.893053,744.500335 C813.733114,744.500335 811.972294,746.259718 811.972294,748.417895 C811.972294,750.576072 813.733114,752.335456 815.893053,752.335456 C816.174784,752.335456 816.433038,752.311997 816.691291,752.241622 L819.320783,755.361595 C817.771261,757.027145 816.832157,759.232239 816.832157,761.671917 C816.832157,763.267091 817.231276,764.744973 817.935604,766.058646 L810.352339,771.407172 C809.413235,770.891086 808.356743,770.586126 807.20634,770.586126 C803.637745,770.586126 800.75,773.471515 800.75,777.037198 C800.75,780.602882 803.637745,783.488271 807.20634,783.488271 C810.774936,783.488271 813.662681,780.602882 813.662681,777.037198 C813.662681,775.395107 813.052263,773.893767 812.019249,772.744303 L819.15644,767.818029 C820.846827,769.76508 823.35893,770.98492 826.129287,770.98492 C827.913585,770.98492 829.557017,770.492292 830.965673,769.62433 L834.32297,773.893767 C833.266478,775.34819 832.65606,777.131032 832.65606,779.054625 C832.65606,783.933981 836.623775,787.875 841.483639,787.875 C846.36698,787.875 850.334694,783.910523 850.334694,779.054625 C850.334694,774.198727 846.36698,770.210791 841.483639,770.210791 Z M845.545264,746.212802 C847.470427,746.212802 849.019949,747.761059 849.019949,749.684651 C849.019949,751.608244 847.470427,753.156501 845.545264,753.156501 C843.6201,753.156501 842.070579,751.608244 842.070579,749.684651 C842.047101,747.761059 843.6201,746.212802 845.545264,746.212802 Z M814.038322,748.464812 C814.038322,747.432641 814.883516,746.588137 815.916531,746.588137 C816.949545,746.588137 817.771261,747.432641 817.771261,748.464812 C817.771261,749.496984 816.926067,750.341488 815.916531,750.341488 C814.883516,750.318029 814.038322,749.496984 814.038322,748.464812 Z M807.20634,781.423928 C804.788147,781.423928 802.816029,779.453418 802.816029,777.037198 C802.816029,774.620979 804.788147,772.650469 807.20634,772.650469 C809.624533,772.650469 811.596652,774.620979 811.596652,777.037198 C811.596652,779.453418 809.624533,781.423928 807.20634,781.423928 Z M818.921664,761.742292 C818.921664,757.777815 822.161573,754.54055 826.129287,754.54055 C830.097002,754.54055 833.313433,757.777815 833.313433,761.742292 C833.313433,765.706769 830.097002,768.920576 826.129287,768.920576 C822.161573,768.920576 818.921664,765.706769 818.921664,761.742292 Z M841.483639,785.810657 C837.7507,785.810657 834.698612,782.761059 834.698612,779.031166 C834.698612,775.301273 837.7507,772.251676 841.483639,772.251676 C845.240055,772.251676 848.268665,775.301273 848.268665,779.031166 C848.268665,782.761059 845.240055,785.810657 841.483639,785.810657 Z" id="Shape"></path>
            </g>
        </g>
    </g>
</svg>