<?xml version="1.0" encoding="UTF-8"?>
<svg width="20px" height="20px" viewBox="0 0 20 20" version="1.1" xmlns="http://www.w3.org/2000/svg" xmlns:xlink="http://www.w3.org/1999/xlink">
    <!-- Generator: Sketch 64 (93537) - https://sketch.com -->
    <g id="Page-1" stroke="none" stroke-width="1" fill="none" fill-rule="evenodd">
        <g id="home_corona" transform="translate(-1155.000000, -50.000000)" fill="#3F6462">
            <path d="M1169.58184,61.9850787 C1169.33303,61.8611939 1168.10976,61.2621562 1167.88166,61.1794713 C1167.65357,61.096834 1167.48769,61.0555391 1167.32181,61.3033561 C1167.15594,61.5512682 1166.67912,62.1090585 1166.53392,62.2743808 C1166.38881,62.4395604 1166.24365,62.4603267 1165.99489,62.3363469 C1165.74602,62.2123671 1164.94428,61.9509118 1163.99389,61.1071933 C1163.25417,60.4506089 1162.75482,59.6397268 1162.60967,59.3917672 C1162.46456,59.1439026 1162.59424,59.009896 1162.71882,58.8863914 C1162.83074,58.7754321 1162.96764,58.5971369 1163.09202,58.4525809 C1163.21645,58.3079774 1163.2579,58.2046213 1163.34084,58.0394892 C1163.42378,57.8741669 1163.38233,57.7295634 1163.32011,57.6056311 C1163.2579,57.4816988 1162.76026,56.2627621 1162.55294,55.7668904 C1162.35096,55.2841342 1162.14584,55.3495218 1161.99309,55.3418236 C1161.84813,55.3346481 1161.68206,55.3331274 1161.51623,55.3331274 C1161.35035,55.3331274 1161.08076,55.3950936 1160.85271,55.6429581 C1160.62462,55.8909177 1159.98183,56.490003 1159.98183,57.7088447 C1159.98183,58.9277339 1160.87344,60.1051856 1160.99787,60.2704604 C1161.12225,60.4357826 1162.75239,62.9369528 1165.24843,64.0096228 C1165.84209,64.2647579 1166.30558,64.4171547 1166.6669,64.5312029 C1167.26299,64.7197624 1167.80541,64.6931512 1168.2341,64.6293793 C1168.71215,64.5582893 1169.70623,64.0303416 1169.9136,63.4519275 C1170.12092,62.8734185 1170.12092,62.3776418 1170.05871,62.2743808 C1169.99654,62.1710722 1169.83066,62.1090585 1169.58184,61.9850787 M1165.04183,68.1543689 L1165.03848,68.1543689 C1163.55332,68.1537986 1162.09661,67.7567211 1160.82578,67.0061895 L1160.52358,66.8276567 L1157.39095,67.6454767 L1158.22708,64.6058093 L1158.03031,64.2941729 C1157.20178,62.9826671 1156.76421,61.4669201 1156.76483,59.9104485 C1156.76664,55.3687674 1160.47966,51.6737986 1165.04512,51.6737986 C1167.25587,51.674559 1169.33403,52.5325334 1170.89674,54.0895278 C1172.4594,55.6464746 1173.31949,57.7161152 1173.31868,59.9170538 C1173.31682,64.4591149 1169.60381,68.1543689 1165.04183,68.1543689 M1172.08606,52.9064211 C1170.20596,51.0331334 1167.70566,50.0010454 1165.04173,50 C1159.55291,50 1155.08566,54.445548 1155.08346,59.9097832 C1155.08275,61.6565251 1155.54128,63.3614494 1156.41273,64.8644609 L1155,70 L1160.27897,68.6218236 C1161.73348,69.4113692 1163.37111,69.8275497 1165.03777,69.82812 L1165.04183,69.82812 L1165.04187,69.82812 C1170.53013,69.82812 1174.9978,65.3820968 1175,59.917719 C1175.001,57.2696644 1173.96615,54.7796614 1172.08606,52.9064211" id="Fill-1"></path>
        </g>
    </g>
</svg>